<svg xmlns="http://www.w3.org/2000/svg" version="1.1" xmlns:xlink="http://www.w3.org/1999/xlink" xmlns:svgjs="http://svgjs.dev/svgjs" width="1440" height="638" preserveAspectRatio="none" viewBox="0 0 1440 638">
    <g mask="url(&quot;#SvgjsMask1405&quot;)" fill="none">
        <rect width="1440" height="638" x="0" y="0" fill="url(&quot;#SvgjsLinearGradient1406&quot;)"></rect>
        <path d="M300.1945927840469 311.96771459526093L322.55950322393744 101.11302267638536 151.94015402371105 173.53663956995393z" fill="rgba(28, 83, 142, 0.4)" class="triangle-float2"></path>
        <path d="M1512.215,683.105C1570.429,684.066,1623.978,648.72,1650.512,596.896C1675.027,549.016,1659.236,494.275,1632.915,447.364C1605.851,399.129,1567.499,352.081,1512.215,350.419C1454.725,348.691,1405.572,389.094,1378.259,439.711C1352.338,487.748,1355.291,544.636,1381.61,592.456C1408.997,642.216,1455.424,682.167,1512.215,683.105" fill="rgba(28, 83, 142, 0.4)" class="triangle-float3"></path>
        <path d="M730.11 416.45 a114.24 114.24 0 1 0 228.48 0 a114.24 114.24 0 1 0 -228.48 0z" fill="rgba(28, 83, 142, 0.4)" class="triangle-float3"></path>
        <path d="M1301.787,793.428C1344.694,793.922,1385.61,774.928,1408.747,738.79C1433.884,699.528,1443.554,649.018,1420,608.787C1396.638,568.885,1347.975,553.958,1301.787,556.102C1259.45,558.067,1222.156,582.123,1201.165,618.943C1180.383,655.396,1178.051,700.024,1199.013,736.374C1219.993,772.754,1259.794,792.944,1301.787,793.428" fill="rgba(28, 83, 142, 0.4)" class="triangle-float1"></path>
        <path d="M613.688,449.564C631.761,448.872,644.363,433.754,653.28,418.019C662.035,402.569,668.265,384.155,659.51,368.705C650.664,353.094,631.631,348.085,613.688,348.147C595.876,348.208,577.778,353.87,568.41,369.019C558.593,384.895,559.325,404.995,568.472,421.266C577.81,437.878,594.645,450.293,613.688,449.564" fill="rgba(28, 83, 142, 0.4)" class="triangle-float2"></path>
        <path d="M974.24 301.53 a136.2 136.2 0 1 0 272.4 0 a136.2 136.2 0 1 0 -272.4 0z" fill="rgba(28, 83, 142, 0.4)" class="triangle-float2"></path>
        <path d="M290.6 571.28 a108.1 108.1 0 1 0 216.2 0 a108.1 108.1 0 1 0 -216.2 0z" fill="rgba(28, 83, 142, 0.4)" class="triangle-float1"></path>
        <path d="M1365.860122512475 390.4749273683358L1539.8424075328555 298.17948328048044 1395.4543528438612 204.41278419843007z" fill="rgba(28, 83, 142, 0.4)" class="triangle-float1"></path>
        <path d="M668.874,264.14C699.508,264.031,722.181,238.003,735.83,210.578C747.909,186.308,746.24,158.547,733.274,134.739C719.64,109.704,697.336,89.231,668.874,87.629C637.654,85.871,605.608,99.296,590.556,126.704C575.937,153.324,586.054,184.668,601.09,211.055C616.319,237.779,638.115,264.249,668.874,264.14" fill="rgba(28, 83, 142, 0.4)" class="triangle-float2"></path>
        <path d="M349.629,615.097C408.355,617.904,468.639,594.922,498.049,544.014C527.47,493.086,518.548,428.532,485.522,379.865C456.144,336.574,401.926,326.784,349.629,325.3C293.572,323.71,228.946,323.912,199.691,371.757C169.688,420.825,193.735,481.945,223.906,530.91C252.263,576.932,295.634,612.516,349.629,615.097" fill="rgba(28, 83, 142, 0.4)" class="triangle-float3"></path>
    </g>
    <defs>
        <mask id="SvgjsMask1405">
            <rect width="1440" height="638" fill="#ffffff"></rect>
        </mask>
        <linearGradient x1="50%" y1="100%" x2="50%" y2="0%" gradientUnits="userSpaceOnUse" id="SvgjsLinearGradient1406">
            <stop stop-color="rgba(5, 15, 24, 1)" offset="0"></stop>
            <stop stop-color="#00459e" offset="1"></stop>
        </linearGradient>
        <style>
            @keyframes float1 {
                    0%{transform: translate(0, 0)}
                    50%{transform: translate(-10px, 0)}
                    100%{transform: translate(0, 0)}
                }

                .triangle-float1 {
                    animation: float1 5s infinite;
                }

                @keyframes float2 {
                    0%{transform: translate(0, 0)}
                    50%{transform: translate(-5px, -5px)}
                    100%{transform: translate(0, 0)}
                }

                .triangle-float2 {
                    animation: float2 4s infinite;
                }

                @keyframes float3 {
                    0%{transform: translate(0, 0)}
                    50%{transform: translate(0, -10px)}
                    100%{transform: translate(0, 0)}
                }

                .triangle-float3 {
                    animation: float3 6s infinite;
                }
        </style>
    </defs>
</svg>