<svg xmlns="http://www.w3.org/2000/svg" version="1.1" xmlns:xlink="http://www.w3.org/1999/xlink" xmlns:svgjs="http://svgjs.dev/svgjs" width="638" height="1440" preserveAspectRatio="none" viewBox="0 0 638 1440">
    <g mask="url(&quot;#SvgjsMask1427&quot;)" fill="none">
        <rect width="638" height="1440" x="0" y="0" fill="url(&quot;#SvgjsLinearGradient1428&quot;)"></rect>
        <path d="M94.73,464.435C139.074,461.973,179.217,437.391,199.836,398.055C219.113,361.279,210.268,318.602,190.237,282.231C169.305,244.224,138.105,208.358,94.73,207.209C49.808,206.019,13.87,238.83,-9.964,276.927C-35.727,318.107,-56.425,368.558,-32.745,410.97C-8.669,454.09,45.42,467.173,94.73,464.435" fill="rgba(28, 83, 142, 0.4)" class="triangle-float3"></path>
        <path d="M297.673,1038.403C357.869,1040.42,419.556,1015.673,448.341,962.767C476.158,911.64,455.72,851.738,426.674,801.3C397.555,750.735,355.992,699.236,297.673,701.134C241.251,702.97,208.958,759.413,182.44,809.249C158.071,855.047,140.23,906.874,163.537,953.222C189.04,1003.939,240.937,1036.501,297.673,1038.403" fill="rgba(28, 83, 142, 0.4)" class="triangle-float1"></path>
        <path d="M421.18,755.719C487.139,753.06,532.086,696.368,564.146,638.663C595.024,583.086,617.678,516.062,584.44,461.863C552.184,409.265,482.873,404.562,421.18,405.54C361.785,406.482,299.703,417.547,266.648,466.902C229.985,521.645,225.667,592.962,256.75,651.055C289.602,712.455,351.601,758.524,421.18,755.719" fill="rgba(28, 83, 142, 0.4)" class="triangle-float2"></path>
        <path d="M178.92 1401.79 a145.01 145.01 0 1 0 290.02 0 a145.01 145.01 0 1 0 -290.02 0z" fill="rgba(28, 83, 142, 0.4)" class="triangle-float1"></path>
        <path d="M179.41 1422.34 a165.99 165.99 0 1 0 331.98 0 a165.99 165.99 0 1 0 -331.98 0z" fill="rgba(28, 83, 142, 0.4)" class="triangle-float3"></path>
        <path d="M174.30042513823355 1270.3579720611053L30.12501629259441 1165.608406042188 69.55085911931644 1414.5333809067445z" fill="rgba(28, 83, 142, 0.4)" class="triangle-float3"></path>
        <path d="M237.8427349494705 1341.4536525943906L267.3521944993939 1422.5302263681147 374.21232538501823 1337.7277501563674z" fill="rgba(28, 83, 142, 0.4)" class="triangle-float1"></path>
        <path d="M419.75 73.06 a137.94 137.94 0 1 0 275.88 0 a137.94 137.94 0 1 0 -275.88 0z" fill="rgba(28, 83, 142, 0.4)" class="triangle-float1"></path>
        <path d="M614.429,1511.614C654.911,1510.609,683.85,1477.741,704.638,1442.99C726.187,1406.966,743.461,1364.792,724.729,1327.226C704.306,1286.27,660.165,1260.431,614.429,1262.082C571.071,1263.647,537.421,1296.383,517.111,1334.721C498.22,1370.381,496.659,1412.315,516.111,1447.672C536.308,1484.384,572.541,1512.654,614.429,1511.614" fill="rgba(28, 83, 142, 0.4)" class="triangle-float1"></path>
        <path d="M-79.52 686.79 a115.76 115.76 0 1 0 231.52 0 a115.76 115.76 0 1 0 -231.52 0z" fill="rgba(28, 83, 142, 0.4)" class="triangle-float1"></path>
    </g>
    <defs>
        <mask id="SvgjsMask1427">
            <rect width="638" height="1440" fill="#ffffff"></rect>
        </mask>
        <linearGradient x1="0%" y1="50%" x2="100%" y2="50%" gradientUnits="userSpaceOnUse" id="SvgjsLinearGradient1428">
            <stop stop-color="rgba(5, 15, 24, 1)" offset="0"></stop>
            <stop stop-color="#00459e" offset="1"></stop>
        </linearGradient>
        <style>
            @keyframes float1 {
                    0%{transform: translate(0, 0)}
                    50%{transform: translate(-10px, 0)}
                    100%{transform: translate(0, 0)}
                }

                .triangle-float1 {
                    animation: float1 5s infinite;
                }

                @keyframes float2 {
                    0%{transform: translate(0, 0)}
                    50%{transform: translate(-5px, -5px)}
                    100%{transform: translate(0, 0)}
                }

                .triangle-float2 {
                    animation: float2 4s infinite;
                }

                @keyframes float3 {
                    0%{transform: translate(0, 0)}
                    50%{transform: translate(0, -10px)}
                    100%{transform: translate(0, 0)}
                }

                .triangle-float3 {
                    animation: float3 6s infinite;
                }
        </style>
    </defs>
</svg>