<svg xmlns="http://www.w3.org/2000/svg" version="1.1" xmlns:xlink="http://www.w3.org/1999/xlink" xmlns:svgjs="http://svgjs.dev/svgjs" width="638" height="1440" preserveAspectRatio="none" viewBox="0 0 638 1440"><g mask="url(&quot;#SvgjsMask1028&quot;)" fill="none"><rect width="638" height="1440" x="0" y="0" fill="#0e2a47"></rect><path d="M22.468799277810497 1140.1104181093133L166.31785606946127 1256.597087489354 138.95546865785113 996.2613613176625z" fill="rgba(28, 83, 142, 0.4)" class="triangle-float1"></path><path d="M649.026,1436.39C687.699,1436.221,728.2,1422.673,746.034,1388.357C762.925,1355.854,744.197,1319.696,726.273,1287.751C707.778,1254.787,686.82,1216.012,649.026,1215.46C610.718,1214.9,586.659,1252.104,567.766,1285.434C549.232,1318.13,532.721,1356.12,550.535,1389.214C569.028,1423.569,610.01,1436.561,649.026,1436.39" fill="rgba(28, 83, 142, 0.4)" class="triangle-float2"></path><path d="M283.87 875.4 a175.49 175.49 0 1 0 350.98 0 a175.49 175.49 0 1 0 -350.98 0z" fill="rgba(28, 83, 142, 0.4)" class="triangle-float3"></path><path d="M274.596,1242.205C311.48,1241.631,340.452,1214.614,358.99,1182.723C377.644,1150.633,386.867,1112.02,369.268,1079.339C350.862,1045.159,313.415,1025.583,274.596,1026.006C236.494,1026.421,202.019,1048.101,183.433,1081.365C165.296,1113.826,167.189,1153.074,185.524,1185.423C204.133,1218.254,236.863,1242.792,274.596,1242.205" fill="rgba(28, 83, 142, 0.4)" class="triangle-float1"></path><path d="M257.954,1013.451C324.966,1015.878,396.897,999.931,431.788,942.667C467.792,883.578,454.492,808.718,418.828,749.423C384.352,692.103,324.842,653.958,257.954,653.649C190.536,653.337,127.113,688.926,94.481,747.922C62.805,805.188,70.335,875.089,104.644,930.817C137.265,983.803,195.773,1011.199,257.954,1013.451" fill="rgba(28, 83, 142, 0.4)" class="triangle-float3"></path><path d="M92.07494866952806 204.19444900819008L63.54420168613905 41.481914415207285-48.68062555706001 132.359787644818z" fill="rgba(28, 83, 142, 0.4)" class="triangle-float3"></path><path d="M407.93 725.26 a193.95 193.95 0 1 0 387.9 0 a193.95 193.95 0 1 0 -387.9 0z" fill="rgba(28, 83, 142, 0.4)" class="triangle-float2"></path><path d="M481.22805229353725 696.0636048885L687.1422818846168 747.6122779550499 639.1168308166165 568.3788545128594z" fill="rgba(28, 83, 142, 0.4)" class="triangle-float2"></path><path d="M277,646.565C301.355,644.702,321.686,631.093,335.261,610.786C350.983,587.268,365.738,558.554,352.57,533.517C338.822,507.378,306.488,498.357,277,500.012C250.386,501.506,229.004,518.68,214.822,541.25C199.423,565.757,186.222,596.14,200.937,621.063C215.508,645.744,248.423,648.751,277,646.565" fill="rgba(28, 83, 142, 0.4)" class="triangle-float2"></path><path d="M584.747,1124.577C635.012,1122.1,682.099,1103.563,711.193,1062.499C746.357,1012.868,776.994,948.736,746.704,895.989C716.348,843.128,645.704,842.14,584.747,842.306C524.204,842.471,457.007,845.912,424.309,896.866C389.663,950.855,397.752,1023.683,434.7,1076.124C467.145,1122.174,528.483,1127.35,584.747,1124.577" fill="rgba(28, 83, 142, 0.4)" class="triangle-float2"></path></g><defs><mask id="SvgjsMask1028"><rect width="638" height="1440" fill="#ffffff"></rect></mask><style>
                @keyframes float1 {
                    0%{transform: translate(0, 0)}
                    50%{transform: translate(-10px, 0)}
                    100%{transform: translate(0, 0)}
                }

                .triangle-float1 {
                    animation: float1 5s infinite;
                }

                @keyframes float2 {
                    0%{transform: translate(0, 0)}
                    50%{transform: translate(-5px, -5px)}
                    100%{transform: translate(0, 0)}
                }

                .triangle-float2 {
                    animation: float2 4s infinite;
                }

                @keyframes float3 {
                    0%{transform: translate(0, 0)}
                    50%{transform: translate(0, -10px)}
                    100%{transform: translate(0, 0)}
                }

                .triangle-float3 {
                    animation: float3 6s infinite;
                }
            </style></defs></svg>