<?xml version="1.0" encoding="utf-8"?>
<!-- Generator: Adobe Illustrator 27.5.0, SVG Export Plug-In . SVG Version: 6.00 Build 0)  -->
<svg version="1.1" id="Capa_1" xmlns="http://www.w3.org/2000/svg" xmlns:xlink="http://www.w3.org/1999/xlink" x="0px" y="0px"
	 viewBox="0 0 800 800" style="enable-background:new 0 0 800 800;" xml:space="preserve">
<g>
	<defs>
		<rect id="SVGID_1_" y="-2.065" width="800" height="802.065"/>
	</defs>
	<clipPath id="SVGID_00000002372000628686516310000001462540198054523278_">
		<use xlink:href="#SVGID_1_"  style="overflow:visible;"/>
	</clipPath>
	
		<rect x="-9.389" y="-9.389" style="clip-path:url(#SVGID_00000002372000628686516310000001462540198054523278_);fill:#5C2849;" width="818.778" height="818.778"/>
	<g style="clip-path:url(#SVGID_00000002372000628686516310000001462540198054523278_);">
		<g>
			<path style="fill:#FFD285;" d="M310.903,765.449v-0.187c-0.248,0.289-0.494,0.519-0.732,0.695
				c-0.242,0.183-0.506,0.315-0.789,0.409c-0.283,0.091-0.592,0.14-0.924,0.14c-0.441,0-0.856-0.094-1.231-0.283
				c-0.377-0.184-0.705-0.453-0.978-0.804c-0.277-0.34-0.486-0.751-0.627-1.223c-0.145-0.47-0.213-0.98-0.213-1.524
				c0-1.158,0.283-2.059,0.846-2.705c0.564-0.645,1.307-0.967,2.229-0.967c0.535,0,0.984,0.093,1.35,0.273
				c0.367,0.185,0.725,0.466,1.07,0.839v-2.726c0-0.379,0.078-0.662,0.23-0.861c0.15-0.198,0.367-0.291,0.643-0.291
				c0.281,0,0.498,0.091,0.648,0.271c0.154,0.177,0.228,0.441,0.228,0.786v8.157c0,0.353-0.082,0.618-0.244,0.795
				c-0.166,0.173-0.373,0.263-0.633,0.263c-0.252,0-0.461-0.09-0.623-0.273C310.987,766.053,310.903,765.787,310.903,765.449z
				 M307.267,762.733c0,0.499,0.076,0.928,0.232,1.278c0.156,0.354,0.371,0.616,0.639,0.798c0.271,0.179,0.566,0.271,0.889,0.271
				c0.324,0,0.621-0.092,0.891-0.259c0.27-0.168,0.484-0.424,0.645-0.775c0.158-0.355,0.24-0.789,0.24-1.313
				c0-0.495-0.082-0.916-0.24-1.269c-0.16-0.356-0.375-0.631-0.65-0.817c-0.273-0.19-0.572-0.28-0.898-0.28
				c-0.338,0-0.641,0.097-0.908,0.284c-0.264,0.195-0.471,0.475-0.619,0.834C307.339,761.842,307.267,762.259,307.267,762.733z"/>
			<path style="fill:#FFD285;" d="M319.675,763.201h-3.617c0.002,0.42,0.088,0.79,0.25,1.109c0.166,0.324,0.383,0.565,0.66,0.724
				c0.273,0.167,0.574,0.243,0.904,0.243c0.221,0,0.424-0.021,0.605-0.073c0.182-0.051,0.358-0.139,0.531-0.245
				c0.172-0.107,0.33-0.228,0.477-0.358c0.143-0.124,0.328-0.297,0.561-0.512c0.094-0.079,0.23-0.126,0.406-0.126
				c0.191,0,0.342,0.052,0.461,0.154c0.115,0.104,0.176,0.257,0.176,0.442c0,0.171-0.065,0.364-0.195,0.589
				c-0.131,0.226-0.328,0.44-0.596,0.643c-0.262,0.204-0.594,0.374-0.996,0.517c-0.396,0.132-0.857,0.199-1.379,0.199
				c-1.188,0-2.107-0.342-2.771-1.016c-0.658-0.677-0.988-1.593-0.988-2.758c0-0.547,0.082-1.056,0.244-1.521
				c0.166-0.467,0.398-0.873,0.711-1.203c0.313-0.336,0.697-0.59,1.154-0.773c0.455-0.177,0.961-0.259,1.52-0.259
				c0.723,0,1.34,0.147,1.855,0.455c0.52,0.301,0.91,0.696,1.166,1.18c0.258,0.48,0.385,0.977,0.385,1.479
				c0,0.465-0.135,0.77-0.4,0.904C320.532,763.131,320.155,763.201,319.675,763.201z M316.058,762.152h3.352
				c-0.043-0.638-0.215-1.102-0.514-1.419c-0.295-0.315-0.685-0.473-1.168-0.473c-0.459,0-0.84,0.158-1.135,0.475
				C316.298,761.057,316.116,761.525,316.058,762.152z"/>
			<path style="fill:#FFD285;" d="M328.712,764.089c0,0.509-0.125,0.945-0.371,1.307c-0.25,0.369-0.615,0.644-1.102,0.828
				c-0.484,0.19-1.074,0.283-1.771,0.283c-0.662,0-1.234-0.1-1.709-0.305c-0.477-0.203-0.824-0.459-1.051-0.76
				c-0.223-0.307-0.338-0.615-0.338-0.922c0-0.203,0.072-0.375,0.217-0.52c0.147-0.145,0.326-0.218,0.553-0.218
				c0.191,0,0.34,0.047,0.441,0.144c0.105,0.088,0.207,0.227,0.301,0.397c0.191,0.329,0.416,0.572,0.68,0.736
				c0.264,0.161,0.629,0.245,1.084,0.245c0.369,0,0.67-0.084,0.91-0.245c0.238-0.167,0.355-0.355,0.355-0.56
				c0-0.331-0.125-0.572-0.369-0.717c-0.246-0.149-0.652-0.296-1.219-0.428c-0.633-0.158-1.152-0.32-1.551-0.495
				c-0.4-0.177-0.721-0.403-0.961-0.69c-0.236-0.286-0.357-0.636-0.357-1.05c0-0.367,0.107-0.722,0.33-1.054
				c0.219-0.327,0.549-0.587,0.977-0.785c0.436-0.199,0.955-0.294,1.563-0.294c0.479,0,0.91,0.047,1.293,0.148
				c0.383,0.096,0.699,0.232,0.955,0.401c0.256,0.165,0.449,0.352,0.584,0.554c0.131,0.202,0.197,0.399,0.197,0.595
				c0,0.212-0.07,0.391-0.211,0.518c-0.143,0.138-0.346,0.206-0.607,0.206c-0.189,0-0.352-0.05-0.486-0.161
				c-0.133-0.105-0.283-0.268-0.455-0.489c-0.141-0.179-0.307-0.325-0.496-0.434c-0.188-0.107-0.447-0.163-0.773-0.163
				c-0.334,0-0.609,0.076-0.832,0.218c-0.223,0.141-0.33,0.318-0.33,0.53c0,0.193,0.082,0.351,0.24,0.473
				c0.166,0.127,0.383,0.234,0.66,0.313c0.272,0.079,0.656,0.177,1.141,0.3c0.568,0.141,1.041,0.307,1.402,0.498
				c0.365,0.197,0.641,0.426,0.826,0.688C328.62,763.45,328.712,763.753,328.712,764.089z"/>
			<path style="fill:#FFD285;" d="M331.218,758.13c-0.264,0-0.482-0.086-0.662-0.237c-0.184-0.161-0.275-0.384-0.275-0.673
				c0-0.263,0.092-0.482,0.283-0.649c0.186-0.167,0.4-0.254,0.654-0.254c0.236,0,0.447,0.078,0.633,0.229
				c0.188,0.157,0.277,0.382,0.277,0.674c0,0.284-0.088,0.506-0.27,0.669C331.677,758.044,331.466,758.13,331.218,758.13z
				 M332.128,760.036v5.347c0,0.367-0.088,0.649-0.262,0.837c-0.178,0.193-0.4,0.287-0.672,0.287c-0.271,0-0.492-0.094-0.662-0.292
				c-0.168-0.193-0.252-0.472-0.252-0.832v-5.291c0-0.366,0.084-0.644,0.252-0.822c0.17-0.19,0.391-0.281,0.662-0.281
				c0.271,0,0.494,0.091,0.672,0.281C332.04,759.448,332.128,759.703,332.128,760.036z"/>
			<path style="fill:#FFD285;" d="M340.843,760.34v5.376c0,0.61-0.063,1.142-0.197,1.581c-0.127,0.448-0.338,0.806-0.627,1.101
				c-0.291,0.284-0.666,0.503-1.137,0.646c-0.469,0.136-1.051,0.206-1.742,0.206c-0.639,0-1.209-0.088-1.711-0.264
				c-0.5-0.181-0.885-0.415-1.162-0.695c-0.266-0.281-0.402-0.569-0.402-0.87c0-0.229,0.078-0.411,0.23-0.55
				c0.152-0.145,0.338-0.218,0.557-0.218c0.27,0,0.508,0.121,0.711,0.362c0.098,0.121,0.199,0.243,0.307,0.37
				c0.109,0.12,0.225,0.228,0.355,0.315c0.127,0.09,0.283,0.154,0.461,0.197c0.182,0.042,0.389,0.064,0.623,0.064
				c0.48,0,0.853-0.064,1.119-0.197c0.264-0.133,0.449-0.321,0.557-0.558c0.104-0.24,0.162-0.498,0.182-0.767
				c0.018-0.276,0.033-0.714,0.043-1.322c-0.285,0.393-0.613,0.703-0.988,0.906c-0.371,0.21-0.814,0.318-1.33,0.318
				c-0.617,0-1.158-0.164-1.623-0.479c-0.465-0.313-0.82-0.758-1.066-1.33c-0.25-0.569-0.375-1.225-0.375-1.975
				c0-0.549,0.078-1.05,0.226-1.5c0.154-0.445,0.365-0.824,0.65-1.13c0.279-0.31,0.603-0.537,0.971-0.699
				c0.363-0.149,0.764-0.228,1.203-0.228c0.523,0,0.979,0.097,1.363,0.302c0.383,0.198,0.738,0.514,1.07,0.94v-0.244
				c0-0.324,0.078-0.572,0.236-0.748c0.162-0.177,0.359-0.262,0.611-0.262c0.355,0,0.592,0.116,0.713,0.347
				C340.786,759.568,340.843,759.898,340.843,760.34z M335.485,762.691c0,0.745,0.164,1.313,0.49,1.694
				c0.328,0.38,0.75,0.577,1.272,0.577c0.307,0,0.598-0.083,0.869-0.252c0.272-0.166,0.498-0.411,0.668-0.742
				c0.174-0.333,0.26-0.736,0.26-1.206c0-0.758-0.168-1.344-0.5-1.762c-0.332-0.423-0.771-0.634-1.313-0.634
				c-0.527,0-0.953,0.201-1.27,0.609C335.642,761.375,335.485,761.944,335.485,762.691z"/>
			<path style="fill:#FFD285;" d="M344.395,760.01v0.224c0.326-0.43,0.682-0.745,1.068-0.943c0.389-0.203,0.828-0.302,1.332-0.302
				c0.486,0,0.924,0.106,1.309,0.314c0.381,0.215,0.668,0.514,0.859,0.903c0.121,0.225,0.203,0.472,0.236,0.728
				c0.037,0.268,0.055,0.598,0.055,1.006v3.442c0,0.367-0.086,0.649-0.254,0.837c-0.17,0.193-0.391,0.287-0.66,0.287
				c-0.279,0-0.5-0.094-0.672-0.292c-0.172-0.193-0.258-0.472-0.258-0.832v-3.08c0-0.61-0.084-1.08-0.256-1.404
				c-0.166-0.32-0.508-0.479-1.012-0.479c-0.33,0-0.631,0.094-0.902,0.294c-0.271,0.189-0.471,0.459-0.594,0.802
				c-0.09,0.284-0.137,0.798-0.137,1.547v2.321c0,0.374-0.088,0.657-0.262,0.841c-0.176,0.19-0.398,0.283-0.674,0.283
				c-0.268,0-0.486-0.094-0.656-0.292c-0.174-0.193-0.256-0.472-0.256-0.832v-5.347c0-0.353,0.074-0.616,0.23-0.787
				c0.152-0.176,0.363-0.261,0.629-0.261c0.16,0,0.309,0.037,0.438,0.109c0.131,0.084,0.24,0.199,0.314,0.35
				C344.356,759.602,344.395,759.79,344.395,760.01z"/>
			<path style="fill:#FFD285;" d="M356.261,763.201h-3.617c0.004,0.42,0.086,0.79,0.252,1.109c0.164,0.324,0.385,0.565,0.658,0.724
				c0.275,0.167,0.576,0.243,0.906,0.243c0.221,0,0.424-0.021,0.605-0.073c0.184-0.051,0.357-0.139,0.535-0.245
				c0.168-0.107,0.328-0.228,0.469-0.358c0.148-0.124,0.334-0.297,0.564-0.512c0.096-0.079,0.232-0.126,0.408-0.126
				c0.189,0,0.342,0.052,0.457,0.154c0.121,0.104,0.178,0.257,0.178,0.442c0,0.171-0.063,0.364-0.193,0.589
				c-0.133,0.226-0.33,0.44-0.596,0.643c-0.262,0.204-0.594,0.374-0.998,0.517c-0.396,0.132-0.859,0.199-1.377,0.199
				c-1.188,0-2.109-0.342-2.772-1.016c-0.658-0.677-0.99-1.593-0.99-2.758c0-0.547,0.084-1.056,0.244-1.521
				c0.162-0.467,0.404-0.873,0.713-1.203c0.312-0.336,0.695-0.59,1.15-0.773c0.455-0.177,0.963-0.259,1.52-0.259
				c0.721,0,1.344,0.147,1.859,0.455c0.518,0.301,0.906,0.696,1.166,1.18c0.254,0.48,0.383,0.977,0.383,1.479
				c0,0.465-0.135,0.77-0.4,0.904C357.122,763.131,356.747,763.201,356.261,763.201z M352.644,762.152h3.354
				c-0.047-0.638-0.217-1.102-0.512-1.419c-0.295-0.315-0.686-0.473-1.17-0.473c-0.459,0-0.838,0.158-1.135,0.475
				C352.89,761.057,352.708,761.525,352.644,762.152z"/>
			<path style="fill:#FFD285;" d="M364.415,765.449v-0.187c-0.25,0.289-0.494,0.519-0.736,0.695
				c-0.244,0.183-0.506,0.315-0.785,0.409c-0.283,0.091-0.59,0.14-0.926,0.14c-0.443,0-0.854-0.094-1.232-0.283
				c-0.375-0.184-0.701-0.453-0.979-0.804c-0.275-0.34-0.482-0.751-0.625-1.223c-0.145-0.47-0.215-0.98-0.215-1.524
				c0-1.158,0.283-2.059,0.848-2.705c0.568-0.645,1.313-0.967,2.23-0.967c0.533,0,0.982,0.093,1.346,0.273
				c0.369,0.185,0.727,0.466,1.074,0.839v-2.726c0-0.379,0.076-0.662,0.227-0.861c0.152-0.198,0.367-0.291,0.648-0.291
				c0.281,0,0.492,0.091,0.646,0.271c0.15,0.177,0.227,0.441,0.227,0.786v8.157c0,0.353-0.082,0.618-0.244,0.795
				c-0.162,0.173-0.375,0.263-0.629,0.263c-0.256,0-0.463-0.09-0.629-0.273C364.497,766.053,364.415,765.787,364.415,765.449z
				 M360.776,762.733c0,0.499,0.08,0.928,0.234,1.278c0.156,0.354,0.369,0.616,0.641,0.798c0.27,0.179,0.566,0.271,0.885,0.271
				c0.326,0,0.623-0.092,0.895-0.259c0.264-0.168,0.48-0.424,0.641-0.775c0.16-0.355,0.242-0.789,0.242-1.313
				c0-0.495-0.082-0.916-0.242-1.269c-0.16-0.356-0.377-0.631-0.652-0.817c-0.27-0.19-0.57-0.28-0.895-0.28
				c-0.34,0-0.641,0.097-0.91,0.284c-0.266,0.195-0.471,0.475-0.615,0.834C360.849,761.842,360.776,762.259,360.776,762.733z"/>
			<path style="fill:#FFD285;" d="M373.198,757.292v2.821c0.35-0.354,0.701-0.633,1.063-0.823c0.365-0.196,0.811-0.289,1.342-0.289
				c0.615,0,1.154,0.147,1.617,0.436c0.463,0.289,0.824,0.714,1.074,1.272c0.26,0.549,0.387,1.203,0.387,1.964
				c0,0.56-0.072,1.073-0.213,1.538c-0.145,0.467-0.35,0.877-0.623,1.216c-0.27,0.344-0.598,0.613-0.984,0.797
				c-0.387,0.19-0.811,0.283-1.277,0.283c-0.287,0-0.551-0.035-0.803-0.1c-0.25-0.065-0.465-0.16-0.643-0.271
				c-0.176-0.111-0.322-0.223-0.451-0.338c-0.121-0.12-0.285-0.298-0.488-0.534v0.187c0,0.348-0.084,0.612-0.254,0.795
				c-0.164,0.173-0.375,0.263-0.639,0.263c-0.256,0-0.469-0.09-0.625-0.263c-0.154-0.183-0.233-0.447-0.233-0.795v-8.078
				c0-0.372,0.074-0.655,0.227-0.847c0.154-0.196,0.363-0.289,0.631-0.289c0.287,0,0.508,0.091,0.662,0.277
				C373.12,756.693,373.198,756.957,373.198,757.292z M373.286,762.786c0,0.738,0.168,1.303,0.506,1.698
				c0.336,0.396,0.773,0.596,1.324,0.596c0.463,0,0.863-0.204,1.201-0.607c0.34-0.408,0.508-0.985,0.508-1.739
				c0-0.492-0.074-0.907-0.211-1.263c-0.141-0.35-0.344-0.624-0.6-0.819c-0.254-0.188-0.557-0.284-0.898-0.284
				c-0.352,0-0.664,0.097-0.941,0.284c-0.275,0.195-0.494,0.475-0.654,0.84C373.366,761.857,373.286,762.288,373.286,762.786z"/>
			<path style="fill:#FFD285;" d="M381.69,766.735l0.166-0.414l-2.275-5.729c-0.141-0.332-0.209-0.564-0.209-0.719
				s0.041-0.306,0.123-0.441c0.078-0.136,0.19-0.24,0.332-0.323c0.145-0.081,0.289-0.121,0.447-0.121c0.266,0,0.465,0.085,0.6,0.248
				c0.137,0.175,0.258,0.417,0.361,0.731l1.566,4.553l1.48-4.235c0.119-0.344,0.228-0.611,0.318-0.805
				c0.094-0.191,0.199-0.323,0.305-0.394c0.105-0.064,0.254-0.099,0.451-0.099c0.137,0,0.273,0.037,0.4,0.109
				c0.131,0.077,0.23,0.177,0.297,0.304c0.076,0.127,0.107,0.258,0.107,0.397c-0.018,0.084-0.049,0.202-0.086,0.364
				c-0.041,0.159-0.094,0.323-0.15,0.484l-2.414,6.31c-0.209,0.559-0.41,0.994-0.611,1.308c-0.195,0.32-0.457,0.557-0.785,0.73
				c-0.33,0.165-0.771,0.253-1.326,0.253c-0.543,0-0.949-0.06-1.219-0.173c-0.273-0.121-0.406-0.332-0.406-0.645
				c0-0.213,0.063-0.375,0.191-0.491c0.129-0.118,0.32-0.174,0.574-0.174c0.098,0,0.195,0.014,0.291,0.04
				c0.115,0.028,0.215,0.037,0.305,0.037c0.211,0,0.379-0.028,0.5-0.09c0.123-0.063,0.232-0.174,0.328-0.331
				C381.45,767.268,381.563,767.037,381.69,766.735z"/>
		</g>
		<g>
			<path style="fill:#FFD285;" d="M415.925,759.148h0.439v-0.554c0-0.578,0.072-1.04,0.227-1.376
				c0.141-0.345,0.391-0.59,0.742-0.746c0.35-0.16,0.826-0.236,1.443-0.236c1.074,0,1.617,0.265,1.617,0.794
				c0,0.171-0.061,0.316-0.174,0.442c-0.111,0.122-0.242,0.183-0.397,0.183c-0.076,0-0.201-0.014-0.377-0.045
				c-0.172-0.024-0.322-0.037-0.443-0.037c-0.338,0-0.551,0.098-0.647,0.292c-0.094,0.201-0.141,0.481-0.141,0.841v0.442h0.455
				c0.705,0,1.057,0.215,1.057,0.642c0,0.299-0.09,0.489-0.281,0.573c-0.188,0.079-0.443,0.123-0.775,0.123h-0.455v4.896
				c0,0.362-0.088,0.641-0.258,0.835c-0.178,0.195-0.4,0.289-0.678,0.289c-0.262,0-0.48-0.094-0.656-0.289
				c-0.172-0.194-0.26-0.473-0.26-0.835v-4.896h-0.51c-0.275,0-0.482-0.062-0.633-0.192c-0.152-0.12-0.225-0.281-0.225-0.482
				C414.997,759.368,415.308,759.148,415.925,759.148z"/>
			<path style="fill:#FFD285;" d="M422.534,763.832v1.551c0,0.374-0.088,0.657-0.262,0.841c-0.18,0.19-0.404,0.283-0.676,0.283
				c-0.262,0-0.484-0.094-0.652-0.287c-0.178-0.188-0.262-0.47-0.262-0.837v-5.149c0-0.832,0.297-1.245,0.9-1.245
				c0.305,0,0.529,0.095,0.662,0.29c0.139,0.191,0.213,0.482,0.227,0.858c0.223-0.376,0.449-0.667,0.682-0.858
				c0.232-0.195,0.541-0.29,0.932-0.29c0.387,0,0.764,0.095,1.131,0.29c0.367,0.191,0.547,0.451,0.547,0.768
				c0,0.233-0.074,0.412-0.23,0.566c-0.156,0.142-0.322,0.214-0.508,0.214c-0.066,0-0.228-0.039-0.488-0.117
				c-0.26-0.091-0.486-0.131-0.691-0.131c-0.268,0-0.49,0.069-0.662,0.216c-0.172,0.141-0.301,0.352-0.402,0.631
				c-0.094,0.279-0.16,0.616-0.197,1.002C422.548,762.81,422.534,763.282,422.534,763.832z"/>
			<path style="fill:#FFD285;" d="M431.593,763.201h-3.619c0.01,0.42,0.09,0.79,0.256,1.109c0.162,0.324,0.381,0.565,0.658,0.724
				c0.271,0.167,0.572,0.243,0.9,0.243c0.223,0,0.428-0.021,0.609-0.073c0.186-0.051,0.359-0.139,0.531-0.245
				c0.176-0.107,0.33-0.228,0.475-0.358c0.146-0.124,0.336-0.297,0.566-0.512c0.094-0.079,0.23-0.126,0.406-0.126
				c0.189,0,0.342,0.052,0.455,0.154c0.115,0.104,0.18,0.257,0.18,0.442c0,0.171-0.064,0.364-0.197,0.589
				c-0.135,0.226-0.332,0.44-0.588,0.643c-0.266,0.204-0.602,0.374-1.002,0.517c-0.4,0.132-0.861,0.199-1.377,0.199
				c-1.193,0-2.115-0.342-2.773-1.016c-0.66-0.677-0.988-1.593-0.988-2.758c0-0.547,0.08-1.056,0.246-1.521
				c0.158-0.467,0.396-0.873,0.709-1.203c0.311-0.336,0.695-0.59,1.154-0.773c0.451-0.177,0.959-0.259,1.52-0.259
				c0.721,0,1.334,0.147,1.853,0.455c0.52,0.301,0.908,0.696,1.166,1.18c0.256,0.48,0.389,0.977,0.389,1.479
				c0,0.465-0.133,0.77-0.404,0.904C432.448,763.131,432.081,763.201,431.593,763.201z M427.974,762.152h3.355
				c-0.049-0.638-0.211-1.102-0.506-1.419c-0.303-0.315-0.691-0.473-1.174-0.473c-0.463,0-0.838,0.158-1.139,0.475
				C428.218,761.057,428.04,761.525,427.974,762.152z"/>
			<path style="fill:#FFD285;" d="M439.841,763.201h-3.621c0.008,0.42,0.092,0.79,0.256,1.109c0.164,0.324,0.387,0.565,0.656,0.724
				c0.275,0.167,0.578,0.243,0.906,0.243c0.221,0,0.418-0.021,0.604-0.073c0.184-0.051,0.367-0.139,0.531-0.245
				c0.172-0.107,0.33-0.228,0.477-0.358c0.145-0.124,0.338-0.297,0.565-0.512c0.096-0.079,0.228-0.126,0.406-0.126
				c0.19,0,0.346,0.052,0.461,0.154c0.115,0.104,0.174,0.257,0.174,0.442c0,0.171-0.064,0.364-0.191,0.589
				c-0.133,0.226-0.332,0.44-0.598,0.643c-0.262,0.204-0.596,0.374-0.994,0.517c-0.4,0.132-0.861,0.199-1.379,0.199
				c-1.186,0-2.111-0.342-2.772-1.016c-0.66-0.677-0.988-1.593-0.988-2.758c0-0.547,0.082-1.056,0.24-1.521
				c0.164-0.467,0.4-0.873,0.713-1.203c0.313-0.336,0.695-0.59,1.154-0.773c0.457-0.177,0.961-0.259,1.516-0.259
				c0.721,0,1.344,0.147,1.863,0.455c0.514,0.301,0.902,0.696,1.162,1.18c0.258,0.48,0.383,0.977,0.383,1.479
				c0,0.465-0.131,0.77-0.398,0.904C440.698,763.131,440.327,763.201,439.841,763.201z M436.22,762.152h3.353
				c-0.045-0.638-0.215-1.102-0.51-1.419c-0.295-0.315-0.682-0.473-1.166-0.473c-0.463,0-0.838,0.158-1.137,0.475
				C436.47,761.057,436.282,761.525,436.22,762.152z"/>
			<path style="fill:#FFD285;" d="M444.448,760.028v0.214c0.354-0.426,0.713-0.741,1.086-0.94c0.375-0.205,0.799-0.302,1.275-0.302
				c0.566,0,1.09,0.147,1.57,0.438c0.479,0.295,0.855,0.725,1.137,1.287c0.275,0.56,0.414,1.231,0.414,2.008
				c0,0.566-0.082,1.088-0.242,1.566c-0.158,0.477-0.379,0.877-0.66,1.199c-0.279,0.323-0.607,0.573-0.988,0.747
				c-0.381,0.174-0.793,0.261-1.23,0.261c-0.531,0-0.975-0.108-1.332-0.318c-0.363-0.213-0.705-0.524-1.029-0.933v2.774
				c0,0.811-0.301,1.219-0.883,1.219c-0.354,0-0.582-0.105-0.697-0.313c-0.113-0.212-0.166-0.521-0.166-0.92v-7.981
				c0-0.353,0.076-0.616,0.229-0.787c0.152-0.176,0.363-0.261,0.635-0.261c0.26,0,0.471,0.085,0.635,0.267
				C444.368,759.433,444.448,759.69,444.448,760.028z M448.075,762.714c0-0.49-0.074-0.91-0.225-1.256
				c-0.15-0.354-0.355-0.624-0.617-0.81c-0.264-0.19-0.557-0.28-0.881-0.28c-0.506,0-0.937,0.201-1.291,0.609
				c-0.348,0.398-0.527,0.992-0.527,1.77c0,0.732,0.176,1.307,0.527,1.716c0.344,0.413,0.775,0.617,1.291,0.617
				c0.313,0,0.592-0.092,0.852-0.271c0.266-0.182,0.475-0.443,0.633-0.8C447.993,763.646,448.075,763.218,448.075,762.714z"/>
			<path style="fill:#FFD285;" d="M452.356,758.13c-0.264,0-0.486-0.086-0.666-0.237c-0.18-0.161-0.275-0.384-0.275-0.673
				c0-0.263,0.096-0.482,0.285-0.649c0.182-0.167,0.402-0.254,0.656-0.254c0.234,0,0.447,0.078,0.633,0.229
				c0.184,0.157,0.277,0.382,0.277,0.674c0,0.284-0.09,0.506-0.273,0.669C452.813,758.044,452.597,758.13,452.356,758.13z
				 M453.267,760.036v5.347c0,0.367-0.09,0.649-0.268,0.837c-0.174,0.193-0.393,0.287-0.67,0.287c-0.272,0-0.49-0.094-0.658-0.292
				c-0.168-0.193-0.256-0.472-0.256-0.832v-5.291c0-0.366,0.088-0.644,0.256-0.822c0.168-0.19,0.387-0.281,0.658-0.281
				c0.277,0,0.496,0.091,0.67,0.281C453.177,759.448,453.267,759.703,453.267,760.036z"/>
			<path style="fill:#FFD285;" d="M459.784,765.66l-1.635-2.685l-1.004,0.951v1.469c0,0.354-0.088,0.628-0.273,0.822
				c-0.193,0.195-0.412,0.289-0.648,0.289c-0.289,0-0.508-0.094-0.67-0.287c-0.17-0.188-0.246-0.47-0.246-0.837v-7.885
				c0-0.412,0.074-0.725,0.23-0.938c0.164-0.216,0.391-0.324,0.686-0.324c0.283,0,0.508,0.093,0.676,0.291
				c0.166,0.199,0.246,0.482,0.246,0.861v4.485l2.084-2.183c0.26-0.27,0.453-0.457,0.586-0.553c0.137-0.102,0.303-0.148,0.496-0.148
				c0.232,0,0.422,0.068,0.58,0.222c0.15,0.146,0.228,0.328,0.228,0.551c0,0.272-0.252,0.631-0.752,1.082l-0.986,0.9l1.898,2.982
				c0.145,0.223,0.244,0.39,0.305,0.504c0.057,0.112,0.09,0.227,0.09,0.326c0,0.296-0.078,0.525-0.238,0.699
				c-0.162,0.165-0.379,0.252-0.637,0.252c-0.227,0-0.396-0.063-0.523-0.185C460.157,766.202,459.993,765.979,459.784,765.66z"/>
			<path style="fill:#FFD285;" d="M464.358,766.507c-0.279,0-0.522-0.09-0.723-0.273c-0.205-0.179-0.313-0.432-0.313-0.757
				c0-0.275,0.102-0.514,0.297-0.711c0.195-0.198,0.44-0.3,0.719-0.3c0.283,0,0.527,0.102,0.728,0.296
				c0.201,0.197,0.303,0.433,0.303,0.715c0,0.32-0.102,0.576-0.303,0.757C464.866,766.417,464.632,766.507,464.358,766.507z"/>
			<path style="fill:#FFD285;" d="M474.112,764.216c0,0.229-0.068,0.475-0.209,0.736c-0.137,0.269-0.348,0.515-0.627,0.752
				c-0.283,0.236-0.643,0.429-1.068,0.569c-0.43,0.147-0.918,0.219-1.451,0.219c-1.142,0-2.035-0.333-2.676-1
				c-0.641-0.665-0.963-1.557-0.963-2.678c0-0.76,0.146-1.433,0.439-2.012c0.291-0.584,0.721-1.034,1.277-1.351
				c0.557-0.318,1.217-0.475,1.99-0.475c0.477,0,0.916,0.067,1.316,0.209c0.402,0.136,0.74,0.314,1.02,0.539
				c0.277,0.219,0.488,0.455,0.635,0.706c0.148,0.255,0.221,0.485,0.221,0.704c0,0.225-0.082,0.41-0.25,0.561
				c-0.164,0.154-0.363,0.229-0.598,0.229c-0.154,0-0.285-0.041-0.383-0.116c-0.105-0.079-0.215-0.206-0.342-0.385
				c-0.223-0.343-0.461-0.602-0.709-0.773c-0.246-0.169-0.561-0.255-0.938-0.255c-0.543,0-0.984,0.216-1.322,0.64
				c-0.332,0.429-0.502,1.01-0.502,1.75c0,0.35,0.043,0.669,0.133,0.96c0.08,0.289,0.209,0.537,0.369,0.749
				c0.16,0.199,0.361,0.36,0.588,0.464c0.23,0.106,0.488,0.158,0.762,0.158c0.367,0,0.688-0.089,0.953-0.254
				c0.262-0.181,0.496-0.435,0.699-0.79c0.115-0.207,0.236-0.37,0.365-0.481c0.133-0.123,0.291-0.179,0.48-0.179
				c0.23,0,0.412,0.08,0.565,0.254C474.034,763.843,474.112,764.023,474.112,764.216z"/>
			<path style="fill:#FFD285;" d="M482.647,762.747c0,0.546-0.078,1.056-0.254,1.52c-0.172,0.47-0.422,0.869-0.748,1.2
				c-0.324,0.335-0.709,0.595-1.164,0.777c-0.453,0.173-0.961,0.263-1.527,0.263c-0.553,0-1.061-0.09-1.508-0.273
				c-0.443-0.179-0.838-0.437-1.166-0.769c-0.32-0.343-0.576-0.738-0.742-1.197c-0.166-0.456-0.254-0.967-0.254-1.52
				c0-0.561,0.088-1.069,0.264-1.543c0.166-0.458,0.412-0.86,0.729-1.188c0.324-0.331,0.715-0.583,1.17-0.761
				c0.457-0.182,0.957-0.267,1.508-0.267c0.566,0,1.07,0.091,1.527,0.271c0.457,0.178,0.846,0.435,1.172,0.773
				c0.328,0.332,0.57,0.728,0.74,1.19C482.569,761.685,482.647,762.193,482.647,762.747z M480.794,762.747
				c0-0.755-0.17-1.341-0.5-1.763c-0.33-0.418-0.773-0.63-1.34-0.63c-0.357,0-0.676,0.091-0.955,0.278
				c-0.273,0.19-0.486,0.469-0.637,0.832c-0.148,0.366-0.223,0.794-0.223,1.282c0,0.483,0.074,0.905,0.223,1.265
				c0.145,0.363,0.357,0.634,0.629,0.829c0.273,0.193,0.596,0.283,0.963,0.283c0.566,0,1.01-0.203,1.34-0.624
				C480.624,764.073,480.794,763.487,480.794,762.747z"/>
			<path style="fill:#FFD285;" d="M490.261,762.879v2.462c0,0.39-0.088,0.681-0.262,0.874c-0.18,0.198-0.412,0.292-0.701,0.292
				c-0.279,0-0.506-0.094-0.682-0.292c-0.174-0.193-0.264-0.484-0.264-0.874v-2.945c0-0.47-0.014-0.823-0.043-1.087
				c-0.031-0.256-0.117-0.47-0.26-0.631c-0.139-0.168-0.359-0.246-0.664-0.246c-0.602,0-1.004,0.205-1.193,0.621
				c-0.191,0.416-0.289,1.013-0.289,1.786v2.502c0,0.385-0.086,0.673-0.262,0.87c-0.174,0.195-0.404,0.296-0.688,0.296
				c-0.277,0-0.506-0.1-0.69-0.296c-0.178-0.197-0.266-0.485-0.266-0.87v-5.295c0-0.343,0.076-0.609,0.238-0.787
				c0.164-0.18,0.375-0.271,0.633-0.271s0.469,0.085,0.633,0.248c0.176,0.175,0.258,0.411,0.258,0.705v0.172
				c0.32-0.38,0.664-0.661,1.031-0.841c0.363-0.179,0.773-0.272,1.217-0.272c0.469,0,0.867,0.093,1.199,0.277
				c0.338,0.185,0.611,0.466,0.828,0.835c0.311-0.373,0.648-0.654,1.006-0.839c0.353-0.181,0.75-0.273,1.184-0.273
				c0.506,0,0.943,0.097,1.309,0.296c0.367,0.204,0.637,0.486,0.818,0.854c0.162,0.336,0.238,0.86,0.238,1.58v3.61
				c0,0.39-0.092,0.681-0.268,0.874c-0.172,0.198-0.402,0.292-0.693,0.292c-0.277,0-0.512-0.1-0.686-0.296
				c-0.184-0.197-0.271-0.485-0.271-0.87v-3.112c0-0.393-0.014-0.714-0.051-0.955c-0.039-0.237-0.125-0.439-0.272-0.6
				c-0.152-0.164-0.377-0.242-0.68-0.242c-0.246,0-0.473,0.073-0.693,0.216c-0.217,0.14-0.394,0.337-0.516,0.586
				C490.327,761.54,490.261,762.091,490.261,762.879z"/>
		</g>
		<g>
			<path style="fill:#FFD285;" d="M401.345,754.218c-0.035-0.116-0.072-0.237-0.111-0.353c0.615-0.058,1.035-0.805,0.734-1.356
				c-0.279-0.621-1.238-0.697-1.607-0.128c-0.395,0.506-0.086,1.302,0.518,1.464c0.041,0.124,0.072,0.257,0.111,0.382
				c-0.93,0.066-1.879,0.271-2.664,0.802c0.082,0.22,0.162,0.456,0.242,0.681c1.58-0.691,3.344-0.543,5.008-0.376
				c0.059-0.219,0.113-0.439,0.168-0.659C402.989,754.338,402.165,754.213,401.345,754.218z"/>
			<path style="fill:#FFD285;" d="M410.724,756.762c-0.248,0.125-0.295,0.43-0.283,0.681c-0.277,0.268-0.145,0.679-0.174,1.013
				c-0.063,0.19-0.289,0.214-0.447,0.287c-0.219-0.337-0.449-0.654-0.746-0.927l0.006-0.016c-0.32-0.296-0.664-0.566-1.025-0.804
				c-0.289,0.31-0.596,0.62-0.875,0.941c0.553,0.61,1.066,1.273,1.52,1.958c0.315,0.525,0.563,1.085,0.783,1.656
				c0.467-0.243,0.932-0.494,1.4-0.738c-0.248-0.571-0.529-1.131-0.83-1.677c0.205-0.111,0.486-0.219,0.516-0.491
				c0.023-0.3-0.039-0.623,0.135-0.886c0.365,0.233,0.916-0.028,0.92-0.468C411.671,756.831,411.099,756.506,410.724,756.762z"/>
			<path style="fill:#FFD285;" d="M408.186,760.163c-0.609-1.014-1.27-2.022-2.17-2.8c-1.033-0.914-2.383-1.531-3.783-1.524
				c-1.768-0.016-3.559,0.264-5.186,0.973c-1.533,0.674-2.869,1.881-3.543,3.431c-0.652,1.393-0.641,3.003-0.348,4.488
				c1.625,0.405,3.279,0.767,4.953,0.843c1.658,0.052,3.32,0.091,4.967-0.136c2.258-0.302,4.473-1.012,6.445-2.168
				C409.522,763.269,409.247,761.784,408.186,760.163z M400.196,762.167c-0.307,0.442-0.748,0.786-1.252,0.979
				c-0.953,0.354-2.107,0.11-2.793-0.646c-0.477-0.525-0.76-1.23-0.709-1.947c0.039-0.891,0.59-1.723,1.373-2.139
				c0.594-0.32,1.313-0.378,1.967-0.195c0.271,0.066,0.52,0.195,0.754,0.35c0.484,0.34,0.842,0.843,1.006,1.414
				C400.765,760.713,400.62,761.532,400.196,762.167z M407.05,760.554c-0.113,0.766-0.842,1.407-1.621,1.358
				c-0.451,0.039-0.885-0.173-1.191-0.493c-0.221-0.273-0.4-0.585-0.432-0.948c-0.105-0.771,0.439-1.57,1.197-1.754
				c0.332-0.094,0.684-0.042,1.014,0.038C406.726,759.004,407.192,759.812,407.05,760.554z"/>
			<path style="fill:#FFD285;" d="M393.524,757.901c-0.66,0.397-1.203,0.961-1.658,1.579c-0.133-0.248-0.172-0.539-0.344-0.76
				c-0.098-0.129-0.275-0.075-0.41-0.075c-0.178,0.015-0.348-0.032-0.514-0.081c0.195-0.271,0.143-0.689-0.152-0.869
				c-0.316-0.224-0.807-0.029-0.893,0.349c-0.131,0.411,0.307,0.826,0.711,0.717c0.217,0.318,0.605,0.268,0.936,0.276
				c0.146,0.26,0.262,0.541,0.453,0.774c-0.355,0.698-0.557,1.48-0.574,2.263c0.457,0.191,0.914,0.385,1.369,0.576
				c0.022-0.498,0.082-0.988,0.154-1.47c0.152-1.067,0.766-1.986,1.494-2.745C393.917,758.245,393.714,758.08,393.524,757.901z"/>
			<path style="fill:#FFD285;" d="M404.157,765.899c-1.678,0.366-3.406,0.475-5.119,0.399c-1.158-0.055-2.318-0.166-3.447-0.417
				c-0.803-0.163-1.59-0.396-2.383-0.623c0.129,1.007,0.537,1.972,1.119,2.804c0.688,0.966,1.608,1.85,2.75,2.209
				c0.891,0.243,1.953,0.546,3.789,0.514c1.516-0.023,3.004-0.216,4.332-0.786c0.858-0.366,1.658-0.867,2.352-1.497
				c0.596-0.563,1.064-1.265,1.385-2.014c0.313-0.714,0.596-1.988,0.566-2.646C407.858,764.777,406.028,765.588,404.157,765.899z"/>
		</g>
	</g>
	<g style="clip-path:url(#SVGID_00000002372000628686516310000001462540198054523278_);">
		<path style="fill:#9D7E92;" d="M578.042,366.188c0-12.508-10.14-22.647-22.648-22.647H274.597
			c-12.506,0-22.645,10.139-22.645,22.647v147.945h326.089V366.188z"/>
		<path style="fill:#5C2849;" d="M418.029,350.168c0-1.675-1.358-3.032-3.032-3.032c-1.675,0-3.032,1.357-3.032,3.032
			c0,1.673,1.358,3.032,3.032,3.032C416.671,353.2,418.029,351.841,418.029,350.168z"/>
		<path style="fill:#EC7263;" d="M251.953,514.133v22.646c0,12.506,10.138,22.645,22.645,22.645h96.944v49.853h-29.005v19.247
			h144.92v-19.247h-29.003v-49.853h96.94c12.508,0,22.648-10.139,22.648-22.645v-22.646H251.953z"/>
		<path style="fill:#5C2849;" d="M421.06,536.779c0-3.349-2.715-6.065-6.063-6.065c-3.351,0-6.064,2.716-6.064,6.065
			c0,3.35,2.713,6.065,6.064,6.065C418.346,542.844,421.06,540.129,421.06,536.779z"/>
		<polygon style="fill:#FFFFFF;" points="421.476,358.746 391.191,358.746 364.927,358.746 336.343,358.746 264.701,358.746 
			264.701,409.393 264.701,429.602 264.701,448.17 264.701,468.509 264.701,502.705 565.291,502.705 565.291,358.746 		"/>
	</g>
	
		<rect x="408.934" y="485.324" style="clip-path:url(#SVGID_00000002372000628686516310000001462540198054523278_);fill:#9D7E92;" width="0" height="0"/>
	<path style="clip-path:url(#SVGID_00000002372000628686516310000001462540198054523278_);fill:#A73E5C;" d="M273.267,382.685v96.32
		c0,9.272,7.517,16.789,16.79,16.789h243.892c9.273,0,16.79-7.517,16.79-16.789v-96.32c0-2.628-0.621-5.106-1.699-7.321H274.965
		C273.888,377.579,273.267,380.057,273.267,382.685z"/>
	
		<rect x="290.686" y="395.172" style="clip-path:url(#SVGID_00000002372000628686516310000001462540198054523278_);fill:#FE9551;" width="105.293" height="90.152"/>
	
		<rect x="290.686" y="380.03" style="clip-path:url(#SVGID_00000002372000628686516310000001462540198054523278_);fill:#EC7263;" width="105.293" height="15.142"/>
	
		<rect x="412.002" y="380.03" style="clip-path:url(#SVGID_00000002372000628686516310000001462540198054523278_);fill:#EC7263;" width="27.544" height="105.294"/>
	
		<rect x="456.904" y="380.03" style="clip-path:url(#SVGID_00000002372000628686516310000001462540198054523278_);fill:#EC7263;" width="82.403" height="38.383"/>
	
		<rect x="456.904" y="428.836" style="clip-path:url(#SVGID_00000002372000628686516310000001462540198054523278_);fill:#EC7263;" width="82.403" height="56.488"/>
	<g style="clip-path:url(#SVGID_00000002372000628686516310000001462540198054523278_);">
		<path style="fill:#A73E5C;" d="M355.845,411.749c-8.382,0-15.592,4.941-18.934,12.056c8.283,0.988,14.709,8.023,14.709,16.573
			c0,4.377-1.698,8.348-4.454,11.327c2.646,1.208,5.579,1.899,8.678,1.899c11.559,0,20.928-9.369,20.928-20.928
			C376.773,421.119,367.404,411.749,355.845,411.749z"/>
		<path style="fill:#EC7263;" d="M334.917,432.677c0-3.176,0.729-6.175,1.995-8.872c-0.655-0.077-1.317-0.129-1.995-0.129
			c-9.224,0-16.701,7.477-16.701,16.702c0,9.224,7.477,16.702,16.701,16.702c4.848,0,9.199-2.078,12.25-5.375
			C339.946,448.403,334.917,441.136,334.917,432.677z"/>
		<path style="fill:#FFFFFF;" d="M336.912,423.805c-1.266,2.697-1.995,5.696-1.995,8.872c0,8.459,5.029,15.727,12.25,19.028
			c2.756-2.98,4.454-6.95,4.454-11.327C351.621,431.828,345.195,424.793,336.912,423.805z"/>
	</g>
	<g style="clip-path:url(#SVGID_00000002372000628686516310000001462540198054523278_);">
		<rect x="415.22" y="388.023" style="fill:#A73E5C;" width="7.959" height="7.959"/>
		<rect x="428.37" y="388.023" style="fill:#FFD285;" width="7.961" height="7.959"/>
		<rect x="415.22" y="399.644" style="fill:#FFD285;" width="7.959" height="7.96"/>
		<rect x="428.37" y="399.644" style="fill:#FFFFFF;" width="7.961" height="7.96"/>
		<rect x="415.22" y="411.266" style="fill:#FFFFFF;" width="7.959" height="7.959"/>
		<rect x="428.37" y="411.266" style="fill:#A73E5C;" width="7.961" height="7.959"/>
		<rect x="415.22" y="422.887" style="fill:#FFFFFF;" width="7.959" height="7.958"/>
		<rect x="428.37" y="422.887" style="fill:#FFD285;" width="7.961" height="7.958"/>
		<rect x="415.22" y="434.508" style="fill:#A73E5C;" width="7.959" height="7.959"/>
		<rect x="428.37" y="434.508" style="fill:#FE9551;" width="7.961" height="7.959"/>
		<rect x="415.22" y="446.129" style="fill:#FFFFFF;" width="7.959" height="7.959"/>
		<rect x="428.37" y="446.129" style="fill:#FFFFFF;" width="7.961" height="7.959"/>
		<rect x="415.22" y="457.749" style="fill:#FFD285;" width="7.959" height="7.96"/>
		<rect x="428.37" y="457.749" style="fill:#A73E5C;" width="7.961" height="7.96"/>
		<rect x="415.22" y="469.37" style="fill:#A73E5C;" width="7.959" height="7.96"/>
		<rect x="428.37" y="469.37" style="fill:#FE9551;" width="7.961" height="7.96"/>
	</g>
	<path style="clip-path:url(#SVGID_00000002372000628686516310000001462540198054523278_);fill:#FE9551;" d="M487.47,399.222
		c0-6.185-5.014-11.199-11.198-11.199s-11.198,5.014-11.198,11.199c0,6.184,5.014,11.198,11.198,11.198
		S487.47,405.406,487.47,399.222z"/>
	
		<rect x="498.106" y="388.074" style="clip-path:url(#SVGID_00000002372000628686516310000001462540198054523278_);fill:#FE9551;" width="32.044" height="2.574"/>
	
		<rect x="498.106" y="393.004" style="clip-path:url(#SVGID_00000002372000628686516310000001462540198054523278_);fill:#FE9551;" width="32.044" height="2.574"/>
	
		<rect x="498.106" y="397.935" style="clip-path:url(#SVGID_00000002372000628686516310000001462540198054523278_);fill:#FE9551;" width="32.044" height="2.574"/>
	
		<rect x="498.106" y="402.865" style="clip-path:url(#SVGID_00000002372000628686516310000001462540198054523278_);fill:#FE9551;" width="32.044" height="2.573"/>
	
		<rect x="498.106" y="407.795" style="clip-path:url(#SVGID_00000002372000628686516310000001462540198054523278_);fill:#FE9551;" width="32.044" height="2.574"/>
	<path style="clip-path:url(#SVGID_00000002372000628686516310000001462540198054523278_);fill:#5C2849;" d="M533.948,365.896
		H290.056c-6.644,0-12.369,3.87-15.091,9.468h274.074C546.317,369.765,540.593,365.896,533.948,365.896z"/>
	<g style="clip-path:url(#SVGID_00000002372000628686516310000001462540198054523278_);">
		
			<ellipse transform="matrix(0.7071 -0.7071 0.7071 0.7071 -73.6049 205.0522)" style="fill:#FE9551;" cx="210.717" cy="191.375" rx="94.173" ry="94.173"/>
		<path style="fill:#FFFFFF;" d="M228.716,117.322l-0.002-0.001c-1.134-0.275-2.278-0.527-3.434-0.75
			c-0.26-0.052-0.522-0.092-0.782-0.14c-0.891-0.163-1.781-0.321-2.681-0.453c-0.69-0.103-1.385-0.18-2.078-0.264
			c-0.477-0.056-0.948-0.124-1.429-0.171c-21.994-2.231-44.775,5.069-61.628,21.921c-29.761,29.764-29.761,78.018,0.002,107.78
			l0.063-0.064c13.799,13.84,32.884,22.407,53.971,22.407c42.092,0,76.211-34.121,76.211-76.211
			C286.929,155.488,262.118,125.413,228.716,117.322z"/>
		<path style="fill:#5C2849;" d="M217.094,191.375c0-3.522-2.854-6.377-6.377-6.377c-3.521,0-6.375,2.855-6.375,6.377
			c0,3.521,2.854,6.376,6.375,6.376C214.241,197.751,217.094,194.896,217.094,191.375z"/>
		<path style="fill:#5C2849;" d="M213.444,194.102c-1.507,0-2.727-1.221-2.727-2.726l0,0c0-1.506,1.22-2.727,2.727-2.727h50.073
			c1.505,0,2.727,1.221,2.727,2.727l0,0c0,1.505-1.222,2.726-2.727,2.726H213.444z"/>
		<path style="fill:#5C2849;" d="M206.86,191.374c1.065-1.064,2.792-1.064,3.857,0.001l0,0c1.066,1.065,1.066,2.79,0,3.856
			l-31.745,31.744c-1.063,1.064-2.792,1.064-3.857,0l0,0c-1.063-1.065-1.063-2.791,0-3.857L206.86,191.374z"/>
	</g>
	<g style="clip-path:url(#SVGID_00000002372000628686516310000001462540198054523278_);">
		<g>
			<rect x="543.709" y="171.898" style="fill:#9D7E92;" width="85.394" height="91.689"/>
			<rect x="548.461" y="177.002" style="fill:#FFFFFF;" width="75.891" height="57.864"/>
			<path style="fill:#EC7263;" d="M616.176,197.599c0-5.288-4.285-9.575-9.574-9.575c-5.287,0-9.574,4.287-9.574,9.575
				s4.287,9.574,9.574,9.574C611.891,207.173,616.176,202.887,616.176,197.599z"/>
			<polygon style="fill:#FE9551;" points="548.461,234.866 570.512,212.817 583.033,223.84 594.328,217.743 624.352,234.866 			"/>
		</g>
		<rect x="568.156" y="166.064" style="fill:#A73E5C;" width="36.5" height="8.5"/>
	</g>
	
		<rect x="674.498" y="312.349" style="clip-path:url(#SVGID_00000002372000628686516310000001462540198054523278_);fill:#EC7263;" width="21.656" height="88.077"/>
	<polygon style="clip-path:url(#SVGID_00000002372000628686516310000001462540198054523278_);fill:#FE9551;" points="
		717.81,294.023 696.154,294.023 696.154,400.426 717.81,400.426 739.467,400.426 739.467,294.023 	"/>
	
		<rect x="739.467" y="285.984" style="clip-path:url(#SVGID_00000002372000628686516310000001462540198054523278_);fill:#EC7263;" width="21.655" height="114.442"/>
	
		<rect x="761.122" y="294.023" style="clip-path:url(#SVGID_00000002372000628686516310000001462540198054523278_);fill:#9D7E92;" width="26.057" height="106.402"/>
	
		<rect x="787.179" y="302.306" style="clip-path:url(#SVGID_00000002372000628686516310000001462540198054523278_);fill:#F2EFCB;" width="21.655" height="98.12"/>
	
		<rect x="808.834" y="285.984" style="clip-path:url(#SVGID_00000002372000628686516310000001462540198054523278_);fill:#FFFFFF;" width="17.258" height="114.442"/>
	
		<rect x="674.498" y="312.349" style="clip-path:url(#SVGID_00000002372000628686516310000001462540198054523278_);fill:#A73E5C;" width="21.656" height="24.012"/>
	<path style="clip-path:url(#SVGID_00000002372000628686516310000001462540198054523278_);fill:#FFFFFF;" d="M690.112,324.354
		c0-2.642-2.142-4.785-4.785-4.785c-2.643,0-4.787,2.143-4.787,4.785c0,2.643,2.144,4.786,4.787,4.786
		C687.971,329.141,690.112,326.998,690.112,324.354z"/>
	
		<rect x="696.154" y="324.354" style="clip-path:url(#SVGID_00000002372000628686516310000001462540198054523278_);fill:#9D7E92;" width="43.313" height="41.197"/>
	
		<rect x="746.733" y="302.306" style="clip-path:url(#SVGID_00000002372000628686516310000001462540198054523278_);fill:#FE9551;" width="5.831" height="63.246"/>
	
		<rect x="650.275" y="399.267" style="clip-path:url(#SVGID_00000002372000628686516310000001462540198054523278_);fill:#A73E5C;" width="186.645" height="39.984"/>
	
		<rect x="-28.888" y="622.739" style="clip-path:url(#SVGID_00000002372000628686516310000001462540198054523278_);fill:#A73E5C;" width="846.351" height="40.498"/>
	<g style="clip-path:url(#SVGID_00000002372000628686516310000001462540198054523278_);">
		
			<ellipse transform="matrix(0.0132 -0.9999 0.9999 0.0132 28.6939 1190.2217)" style="fill:#9D7E92;" cx="617.368" cy="580.573" rx="16.632" ry="16.631"/>
		<path style="fill:#5C2849;" d="M626.286,580.573c0-4.926-3.992-8.917-8.918-8.917c-4.925,0-8.918,3.991-8.918,8.917
			c0,4.926,3.993,8.919,8.918,8.919C622.294,589.492,626.286,585.499,626.286,580.573z"/>
		<path style="fill:#9D7E92;" d="M560.22,550.039v57.123c0,8.601,6.975,15.578,15.58,15.578h21.214
			c8.604,0,15.579-6.977,15.579-15.578v-57.123H560.22z"/>
	</g>
	<g style="clip-path:url(#SVGID_00000002372000628686516310000001462540198054523278_);">
		<path style="fill:#EC7263;" d="M136.05,558.249c-7.767-2.245-7.953-14.938-5.148-20.664c2.567-5.24,6.506-9.483,9.146-14.817
			c7.018-14.175,5.047-32.164-5.099-44.285c7.352,5.574,15.707,8.706,21.73,15.767c6.001,7.034,9.965,16.783,10.037,26
			c0.104,13.221-20.338,25.344-12.071,38.534c-6.42,0.792-12.917,2.222-19.177,3.381c-0.11-1.005-0.253-2.228-0.086-3.248
			L136.05,558.249z"/>
		<path style="fill:#A73E5C;" d="M150.917,575.56c7.767-2.245,7.953-14.938,5.148-20.664c-2.567-5.24-6.506-9.483-9.146-14.817
			c-7.018-14.175-5.047-32.164,5.099-44.285c-7.352,5.574-15.707,8.706-21.73,15.767c-6.001,7.034-9.965,16.783-10.037,26
			c-0.104,13.221,20.338,25.344,12.071,38.534c6.42,0.792,12.917,2.222,19.177,3.381c0.11-1.005,0.253-2.228,0.086-3.248
			L150.917,575.56z"/>
		<path style="fill:#A73E5C;" d="M154.784,569.249c-7.767-2.245-7.953-14.938-5.148-20.664c2.567-5.24,6.506-9.483,9.146-14.817
			c7.018-14.175,5.047-32.164-5.099-44.285c7.352,5.574,15.707,8.706,21.73,15.767c6.001,7.034,9.965,16.783,10.037,26
			c0.104,13.221-20.338,25.344-12.071,38.534c-6.42,0.792-12.917,2.222-19.177,3.381c-0.11-1.005-0.253-2.228-0.086-3.248
			L154.784,569.249z"/>
		<path style="fill:#EC7263;" d="M173.519,558.249c-7.767-2.245-7.953-14.938-5.148-20.664c2.567-5.24,6.506-9.483,9.146-14.817
			c7.018-14.175,5.047-32.164-5.099-44.285c7.352,5.574,15.707,8.706,21.73,15.767c6.001,7.034,9.965,16.783,10.037,26
			c0.104,13.221-20.338,25.344-12.071,38.534c-6.42,0.792-12.917,2.222-19.177,3.381c-0.11-1.005-0.253-2.228-0.086-3.248
			L173.519,558.249z"/>
		<path style="fill:#A73E5C;" d="M184.535,575.56c-7.767-2.245-7.953-14.938-5.149-20.664c2.567-5.24,6.506-9.483,9.146-14.817
			c7.018-14.175,5.047-32.164-5.099-44.285c7.352,5.574,15.707,8.706,21.73,15.767c6.001,7.034,9.965,16.783,10.037,26
			c0.104,13.221-20.338,25.344-12.071,38.534c-6.42,0.792-12.917,2.222-19.177,3.381c-0.11-1.005-0.253-2.228-0.086-3.248
			L184.535,575.56z"/>
		<polygon style="fill:#FE9551;" points="178.764,571.328 162.932,571.328 122.503,571.328 139.873,623.068 162.932,623.068 
			178.764,623.068 201.822,623.068 219.192,571.328 		"/>
		<rect x="114.715" y="553" style="fill:#88627A;" width="109.333" height="18.328"/>
	</g>
	<g style="clip-path:url(#SVGID_00000002372000628686516310000001462540198054523278_);">
		<circle style="fill:#F5B7AF;" cx="672.089" cy="599.245" r="18.121"/>
		<polygon style="fill:#A73E5C;" points="688.83,622.739 655.349,622.739 650.968,599.245 693.21,599.245 		"/>
		<circle style="fill:#FE9551;" cx="672.089" cy="581.124" r="6.121"/>
	</g>
	<rect style="clip-path:url(#SVGID_00000002372000628686516310000001462540198054523278_);fill:none;" width="800" height="800"/>
	<rect style="clip-path:url(#SVGID_00000002372000628686516310000001462540198054523278_);fill:none;" width="800" height="800"/>
	<rect style="clip-path:url(#SVGID_00000002372000628686516310000001462540198054523278_);fill:none;" width="800" height="800"/>
	
		<rect y="-2.065" style="clip-path:url(#SVGID_00000002372000628686516310000001462540198054523278_);fill:none;" width="800" height="800"/>
</g>
</svg>
